<?xml version="1.0" encoding="UTF-8"?>
<svg id="Charater" xmlns="http://www.w3.org/2000/svg" viewBox="0 0 750.91 644.31">
  <defs>
    <style>
      .cls-1 {
        fill: #5bcefa;
      }

      .cls-1, .cls-2, .cls-3 {
        stroke-width: 0px;
      }

      .cls-2 {
        fill: none;
      }

      .cls-3 {
        fill: #f6a8b8;
      }
    </style>
  </defs>
  <path class="cls-1" d="M122.57,210.39c-.95.37-1.7.71-2.49.85-3.35.59-5.63-.84-6.44-3.13l-7.98-23.37c-.1-.59-.37-.95-.47-1.54-.38-2.17.39-3.52,2.69-4.33l7.44-2.73-13.86-71.68-8.7,8.24c-.52.5-1.27.83-2.06.97-1.18.21-2.47-.17-3.2-.86l-5.88-6.88,18.37,97.29c.59,3.35-.61,4.58-2.75,5.15l-33.66,8.37-.59.1c-2.76.49-4.61-.81-5.03-3.18l-13.59-71.32-19.95.88c-2.24-.01-3.73-1.58-4.04-3.35l-.1-.59,1.01-35.72c.12-1.65,1.55-2.71,3.33-3.02l.79-.14,11.05.49-9.2-48.74c-.38-2.17.79-3.59,3.15-4.01l35.75-5.69c2.36-.42,3.79.75,4.17,2.92l8.96,47.36,6.98-6.51c.32-.46,1.08-.8,1.67-.9,1.18-.21,2.47.17,3.2.86l8.23,7.49-9.54-49.5c-.8-4.53,1.29-9.98,8.11-11.58l66.34-15.35,1.58-.28c13.59-2.4,23.56,5.8,27.07,25.69l.35,1.97,9.28,64.16c.67,4.96-1.61,10.44-9.46,12.02l-46.86,9.48,6.22,31.8,6.85-2.63c.56-.3,1.15-.4,1.54-.47,1.97-.35,3.16.66,3.58,3.02l4.07,24.26c.52,2.96-.55,4.97-3.4,6.08l-42.51,18.06ZM157.43,60.26l-.1-.59c-.8-4.53-3.22-6.74-5.98-6.26l-.39.07-19.13,4.39,3.38,16.87,14.42-1.12c2-.15,3.23,1.05,3.48,2.43l.07.39-.4,10.43c-.21,2.27-1.41,3.5-3.19,3.81l-.59.1-10.65.66,2.89,14.11,22.38-4.35-6.2-40.94ZM196.92,193.22c-1.27.83-2.98,1.54-4.55,1.82-3.35.59-6.94-.2-8.51-3.37l-23.01-41.84c-.34-.75-.64-1.31-.74-1.9-.35-1.97.59-3.56,2.42-4.69l21.53-11.51c.75-.34,1.7-.71,2.29-.81,1.97-.35,3.49.2,4.62,2.03l4.97,7.45,3.82-2.5c.56-.3,1.11-.6,1.51-.67,1.58-.28,3.09.27,4.09,1.31l10.95,13.71c.76.88,1.14,1.83,1.31,2.82.31,1.77-.16,3.68-1.99,4.82l-4.67,3.46,6.44,10.03c.57.91.9,1.67,1.04,2.46.38,2.17-.49,4.15-2.51,5.32l-18.99,12.08Z"/>
  <path class="cls-3" d="M274.73,191.6h-.4c-5.2,0-8.8-3.4-9-8.6l-1.6-64.8v-.4c0-5,3.8-8.2,8.4-8.4l35.2-1.4,1.4-27.6-52.4-.8c-3.4,0-5-1-5-4.2l.4-30c0-3.8,1.4-4.8,4.2-4.8l54.6,1,1.6-34.2c.2-2,1.4-3,3.2-3h.6l41,2.6c2.6.2,3.8,1.4,3.8,3.8v.6l-1.6,31,66.6,1.2c2.8,0,4.6,1.4,4.6,4.2l-.2,29.8c0,2.8-1.2,4.8-4.2,4.8l-68.8-1.2-1.2,24.8,31.2-1.2h1.8c19.4,0,28.4,13,28.4,28.6v.6l-.4,43.8c0,7.6-5.8,10.2-11.2,10.4l-131,3.4ZM367.12,143.4c0-5.8-3-8.2-8-8.2h-.6l-52.4,1.8.6,25.6,60.4-2v-17.2Z"/>
  <path class="cls-1" d="M470.88,178.57c-1.6-1.3-2.54-2.88-2.19-4.85.21-1.18,1.04-2.46,2.5-3.82,33.08-28.69,45.56-44.16,49.25-52.44l40.33-89.35c.74-1.9,2.76-2.97,5.51-2.48.39.07,1.18.21,1.74.51l36.68,15.4c2.46,1.04,3.72,3.09,3.2,6.05-.1.59-.21,1.18-.54,1.94l-39.75,87.22c-5.91,12.77-20.36,32.56-53.56,63.06-2.69,2.57-7.3,3.38-11.24,2.69-1.77-.31-3.48-1.02-4.91-2.08l-27.02-21.82ZM604.92,218.85c-2.41,1-4.88,1.17-7.24.75-3.15-.56-5.9-2.26-6.7-4.63l-21.83-59.29c-.58-1.32-.57-2.54-.39-3.52.28-1.58,1.31-2.82,3.25-3.49l31.17-10.95c1.09-.42,1.91-.48,2.9-.3,1.58.28,2.81,1.31,3.56,2.86l27.34,58.03c.74,1.55.93,2.8.72,3.99-.31,1.77-1.58,3.17-3.32,3.88l-29.45,12.68Z"/>
  <path class="cls-3" d="M109.66,413.08c-2.79-.24-4.08-1.56-3.87-3.95l2.11-30.93c.28-3.19,1.6-4.48,4.19-4.25l54.62,4.38,9.34-76.88-49.09-5.7c-2.79-.24-3.86-1.74-3.65-4.13l4.16-33.77c.48-3.17,1.76-4.06,4.55-3.82l156.02,18.07c2.39.21,3.45,1.91,3.25,4.1l-.05.6-4.36,33.75c-.43,2.57-1.93,3.65-4.52,3.42l-57.24-6.61-9.38,75.07,67.98,5.55c2.59.23,3.86,1.74,3.62,4.53l-2.1,30.93c-.24,2.79-1.54,3.88-4.33,3.64l-171.23-13.98Z"/>
  <path class="cls-1" d="M458.58,422.08c-1.41-.08-2.6-2.18-2.79-4.37-.07-.8.04-1.81.37-2.64l6.24-13.6-72.1,4.3,9.81,15.81c.47.76.75,1.74.82,2.54.16,1.79-.52,3.26-1.9,3.58l-45.58,13.63c-.98.29-2.16.59-3.15.68-2.59.23-5.05-.36-5.99-1.88l-14.9-23.39c-.92-1.33-1.44-2.69-1.54-3.88-.17-1.99.5-3.46,1.68-3.76l10.57-3.13-.12-1.39-.96-20.19c-.11-3.6,1.77-4.97,4.16-5.18l156.53-9.88c2.59-.23,4.11,1.05,4.32,3.44l1.22,18.56,12.76,1.29c1.61.06,3,2.15,3.19,4.34.09,1-.04,1.81-.37,2.64l-11.15,26.27c-.48,1.45-2.23,2-4.23,2.18-.8.07-1.79.16-2.61.03l-44.29-5.96ZM358.94,370.97l-.4.04c-5.18.45-9.44-2.39-10.08-7.35l-12.89-92.23-.09-1c-.51-5.78,2.66-10.87,10-11.92l114.09-15.4,2.59-.23c19.92-1.74,29.05,8.5,31.05,29l7.02,71.06c.66,7.57-5.24,11.3-11.59,12.06l-129.7,15.96ZM446.26,288.25c-.7-7.97-4.74-10.63-9.33-10.23l-.4.04-55.48,6.06,1.32,10.52,43.17-2.17c2.61-.03,4.11,1.05,4.3,3.24.03.4-.13.81-.08,1.41l-.54,5.27c0,2.21-1.48,3.74-4.67,4.02l-40.33,2.52,1.51,12.72,50.88-10.47.4-.03c1.79-.16,3.33,1.31,3.54,3.71l.03.4.09,5.61c.03,2.61-1.83,4.37-5.38,5.09l-47.71,10,1.15,8.53,62-9.64-4.48-46.59Z"/>
  <path class="cls-3" d="M700.42,306.94c-.73.87-2.09,1.39-3.08,1.48-1.2.1-2.23-.21-2.88-.75l-12.35-10.36c-.65-.55-1.12-1.31-1.21-2.3-.09-1,.22-2.03,1.15-2.91l7.99-7.32-25.33,4.22-4.34,14.63c-.93,3.09-3.78,4.95-7.37,5.26-1.4.12-2.61.03-4.04-.25l-24.97-5.44c-1.43-.28-2.13-1.42-2.24-2.61-.05-.6.09-1.21.24-1.83l2.97-9.69-20.38,3.39,9.68,7.38c.85.53,1.13,1.51,1.21,2.3.09,1-.04,1.81-.61,2.26l-10.94,10.39c-.56.45-1.72.95-2.72,1.04-1,.09-2.03-.23-2.66-.57l-10-8.76c-.43-.36-.9-1.13-.99-2.12-.07-.8.24-1.83.99-2.5l9.72-8.28-19.6,3.12-3.92,14.8c-.73,3.08-4.16,5.18-8.15,5.53-1.2.1-2.61.03-3.84-.27l-24.35-5.3c-1.43-.28-2.13-1.42-2.24-2.61-.07-.8.08-1.41.22-2.03l16.93-54.28c.66-1.66,1.8-2.37,3.2-2.49.4-.04,1-.09,1.41.08l28.88,4.3c1.41.08,2.12,1.22,2.24,2.62.03.4.09,1-.08,1.41l-1.38,4.94,32.63-5.67.4-.03c1.99-.17,3.29.92,3.47,2.91l3.55,19.97,10.95-35.49c.66-1.66,1.8-2.37,3.2-2.49.4-.04,1-.09,1.41.08l30.28,4.18c1.41.08,2.31,1.2,2.44,2.6.04.4-.11,1.01-.28,1.43l-1.41,4.54,44.31-7.49.6-.05c1.99-.17,3.09.94,3.47,2.91l3.97,24.75.05.6c.16,1.79-.35,2.84-2.53,3.23l-22.37,3.56,9.86,7.17c.85.53,1.33,1.49,1.44,2.68.07.8-.26,1.63-.81,2.28l-11.81,11.87ZM587.47,436.28l-.8.07c-3.19.28-5.17-1.76-5.4-4.35l-3.15-26.83-3.39,16.36c-.39,2.44-2.28,3.81-4.47,4-.8.07-1.41-.08-2.23-.21l-15.73-3.04c-1.63-.26-2.33-1.4-2.44-2.6-.07-.8.08-1.41.22-2.03l7.8-25.58c.48-1.45,1.42-2.13,2.62-2.24.4-.04,1-.09,1.41.08l14.75,3.33-2.15-17.68-17.07,2.3-.6.05c-2.99.26-4.9-.98-5.31-3.35l-3.02-23.02-.03-.4c-.26-2.99,1.44-4.14,3.82-4.55l15.07-2.12-2.24-18.68c-.23-2.59,1.41-4.54,4.4-4.8l34.23-3.4c2.79-.24,5.55,1.52,5.78,4.11l2.08,16.88,9.73-1.25.4-.03c2.39-.21,4.72,1.19,4.93,3.58l2.82,23.04c.23,2.59-1.01,4.5-4.18,4.98l-13.1,1.75,2.34,19.87,9.17-7.63c.56-.45,1.16-.5,1.76-.56,1-.09,2.01.02,2.66.57l9.27,9.63c.65.54.92,1.32.99,2.12.09,1-.22,2.03-1.17,2.71l-10.42,9.34c-.56.45-1.14.7-1.94.77-1.2.1-2.62-.17-3.09-.93l-6.22-6.88,2.92,24.24c.28,3.19-1.11,5.72-4.06,6.38l-26.98,5.97ZM718.08,423.85l-69.58,3.28c-4.6.2-6.98-1.8-7.31-5.58l-.05-.6-5.88-97.05c-.17-4.2,3.18-7.31,7.56-7.69l.4-.04,59.71-3.62c13.18-.75,24.16,5.32,25.81,24.24l.23,2.59,2.63,69.03c.37,8.8-3.34,14.55-12.51,15.35l-1,.09ZM689.25,351.28l-.04-.4c-.31-3.59-3.25-7.35-7.04-7.01l-15.56,1.16.68,12.39,12.13.95c2.01.02,3.11,1.13,3.23,2.53.05.6-.11,1.01-.26,1.63l-2.14,7.62c-.44,1.85-1.78,2.57-3.18,2.69-.4.03-1.01-.11-1.41-.08l-7.71-.93.49,10.2,11.9-1.64.4-.04c1.79-.16,3.09.93,3.23,2.53l.07.8-.8,6.9c-.37,2.64-1.89,3.58-3.49,3.72l-10.52,1.32.4,9.2,22.37-1.35-2.76-52.16Z"/>
  <line class="cls-2" x1="115.53" y1="97" x2="116.33" y2="98.6"/>
  <g>
    <path class="cls-1" d="M35.97,520.95c-1.04,0-1.92-.88-1.92-1.92v-62.48c0-1.04.88-1.92,1.92-1.92h16.24c1.04,0,1.92.88,1.92,1.92v62.48c0,1.04-.88,1.92-1.92,1.92h-16.24ZM76.45,520.47c-1.04-.08-1.84-.96-1.84-2l1.28-23.04-17.04-.8c-1.04-.08-1.84-.96-1.84-1.92v-.16l.64-14c.08-.96.96-1.84,1.92-1.84h.16l17.04.88,1.12-21.52c.08-.96.88-1.84,1.92-1.84h.16l16.08.88c1.04,0,1.84.96,1.84,2l-3.28,62.4c-.08,1.04-.96,1.84-2,1.84l-16.16-.88Z"/>
    <path class="cls-1" d="M133.09,522.55c-18.16,0-27.28-12.4-27.28-24.56,0-11.44,8.08-23.44,26.32-23.44,19.84,0,20.72,17.68,20.72,20.32,0,3.68-1.52,6.72-6.24,8.32-3.76,1.28-9.68,2.16-13.84,2.32-1.28,0-1.68-.56-2-1.52-.96-2.64-2.48-7.84-2.48-8.16,0-.88.64-1.28,1.68-1.52,4.16-.96,4.72-1.12,4.72-2.24,0-.72-1.52-3.28-4.88-3.28-3.84,0-7.04,3.36-7.04,8.32,0,5.68,4.16,12.08,14.16,12.08.56,0,1.2,0,1.76-.08h.16c1.12,0,2.48.72,2.48,2.08,0,.8-2.08,6.24-3.28,8.96-.64,1.28-1.68,2.4-4,2.4h-.96Z"/>
    <path class="cls-1" d="M211.25,501.99c0,4.48,1.04,8.08,4.32,11.12.48.4,1.28,1.2,1.28,2.08,0,.48-.24.96-.8,1.36,0,.16-7.92,5.84-7.92,5.84-.8.64-1.6.88-2.32.88-1.44,0-14.24-4.24-14.24-18.48v-2.72c0-8.4-4.08-11.92-9.92-12.24l-1.52,29.04c0,.8-.72,1.52-1.52,1.52h-.16l-16-.8c-.96-.08-1.6-.8-1.6-1.76l2.16-41.6c.08-.88.8-1.6,1.6-1.6h.16l8.96.48c3.12-.64,6.08-.96,8.96-.96,16.24,0,28.56,9.92,28.56,25.2v2.64Z"/>
    <path class="cls-3" d="M267.49,494.95c-.96,0-6.4.4-8.32.48h-.16c-1.52,0-2.24-1.28-2.24-2.48l-.16-9.52v-.16c0-1.2,1.04-2.32,2.48-2.4,8.72-.48,20-.96,20.96-.96,6.32,0,8.56,4,8.56,12,0,19.2-16.48,30.56-33.12,30.56-17.84,0-35.04-13.04-35.04-34.88,0-28.56,27.12-34.72,38.16-34.72,4.88,0,9.52.88,13.28,2.64.72.32,1.28,1.2,1.28,2.16v.32l-2.72,13.44c-.16.72-.96,1.44-1.92,1.44-.24,0-.56-.08-.8-.24-1.92-.96-5.04-1.68-8.4-1.68-12.88,0-17.12,8.88-17.12,16.8,0,10.24,7.28,16.16,14.8,16.16,7.92,0,11.84-5.6,11.84-7.84,0-.72-.32-1.12-1.12-1.12h-.24Z"/>
    <path class="cls-3" d="M327.97,519.99c-3.84,1.2-7.6,1.84-11.12,1.84-11.12,0-19.76-6.24-20.48-21.12-.24-5.2-.4-15.12-.48-20.24,0-3.28,1.12-3.92,2.08-4,.08-.16,12.48-1.04,13.84-1.04,1.6,0,2.24.8,2.32,1.76.48,5.36.64,9.68,1.12,19.2.32,6.88,2.72,9.28,6.08,9.28,1.6,0,3.52-.56,5.52-1.52l1.44-27.52c.08-.96.88-1.6,1.76-1.6l15.92.88c.96,0,1.6.8,1.6,1.76l-2.16,41.6c-.08.96-.88,1.6-1.76,1.6l-15.68-.88Z"/>
    <path class="cls-1" d="M404.61,521.51c-.64.32-1.28.48-1.92.48-.8,0-1.52-.32-2.08-1.2-3.36-4.88-8.4-12.8-12.24-19.12-3.36,0-6.64-.4-9.68-1.28l-.96,18.88c-.08.88-.72,1.6-1.6,1.6h-.16l-16.8-.88c-.8,0-1.52-.72-1.52-1.6v-.16l3.2-63.28c.08-.8.8-1.52,1.6-1.52h.16l14.8.72c3.12-.96,6.32-1.44,9.44-1.44,14.72,0,28.08,10.32,28.08,24.96,0,3.92-.96,11.04-6,16.32,4.56,8.4,8.08,19.6,8.08,20.32,0,.8-.4,1.6-1.76,2.16l-10.64,5.04ZM379.48,485.43c1.68.72,3.92,1.28,6.08,1.28,6.48,0,8.8-4.72,8.8-8.4,0-5.2-4.48-8.88-10.4-8.88-1.12,0-2.4.16-3.68.48l-.8,15.52Z"/>
    <path class="cls-1" d="M448.92,522.55c-18.16,0-27.28-12.4-27.28-24.56,0-11.44,8.08-23.44,26.32-23.44,19.84,0,20.72,17.68,20.72,20.32,0,3.68-1.52,6.72-6.24,8.32-3.76,1.28-9.68,2.16-13.84,2.32-1.28,0-1.68-.56-2-1.52-.96-2.64-2.48-7.84-2.48-8.16,0-.88.64-1.28,1.68-1.52,4.16-.96,4.72-1.12,4.72-2.24,0-.72-1.52-3.28-4.88-3.28-3.84,0-7.04,3.36-7.04,8.32,0,5.68,4.16,12.08,14.16,12.08.56,0,1.2,0,1.76-.08h.16c1.12,0,2.48.72,2.48,2.08,0,.8-2.08,6.24-3.28,8.96-.64,1.28-1.68,2.4-4,2.4h-.96Z"/>
    <path class="cls-1" d="M527.08,501.99c0,4.48,1.04,8.08,4.32,11.12.48.4,1.28,1.2,1.28,2.08,0,.48-.24.96-.8,1.36,0,.16-7.92,5.84-7.92,5.84-.8.64-1.6.88-2.32.88-1.44,0-14.24-4.24-14.24-18.48v-2.72c0-8.4-4.08-11.92-9.92-12.24l-1.52,29.04c0,.8-.72,1.52-1.52,1.52h-.16l-16-.8c-.96-.08-1.6-.8-1.6-1.76l2.16-41.6c.08-.88.8-1.6,1.6-1.6h.16l8.96.48c3.12-.64,6.08-.96,8.96-.96,16.24,0,28.56,9.92,28.56,25.2v2.64Z"/>
    <path class="cls-3" d="M365.89,617.75h-.16c-1.04,0-1.84-.88-1.84-1.84l-2.4-45.68-13.12.72c-1.12,0-2.08-.8-2.08-1.84l-.72-14.8v-.16c0-.96.8-1.76,1.84-1.84l14.96-.8,31.68-1.68c1.04,0,2.08.8,2.08,1.92l.72,14.64c0,1.04-.8,2-1.92,2.08l-12.64.64,2.4,45.76v.08c0,1.04-.88,1.84-1.84,1.92l-16.96.88Z"/>
    <path class="cls-3" d="M418.61,618.39c-13.04,0-24.48-9.44-24.48-23.52,0-16.48,12.32-25.04,26.4-25.04,17.68,0,25.28,13.84,25.28,24.24,0,15.6-15.84,24.32-27.2,24.32ZM428.77,593.91c0-1.52-.32-9.28-8.48-9.28-6.72,0-8.64,5.68-8.64,9.28,0,5.52,4.32,9.2,8.88,9.2,5.68,0,8.24-4.64,8.24-9.2Z"/>
    <path class="cls-3" d="M474.85,618.39c-13.04,0-24.48-9.44-24.48-23.52,0-16.48,12.32-25.04,26.4-25.04,17.68,0,25.28,13.84,25.28,24.24,0,15.6-15.84,24.32-27.2,24.32ZM485.01,593.91c0-1.52-.32-9.28-8.48-9.28-6.72,0-8.64,5.68-8.64,9.28,0,5.52,4.32,9.2,8.88,9.2,5.68,0,8.24-4.64,8.24-9.2Z"/>
    <path class="cls-3" d="M511.81,616.95c-.88,0-1.6-.72-1.6-1.6v-65.36c0-.96.72-1.68,1.6-1.68h16.08c.88,0,1.6.72,1.6,1.68v65.36c0,.88-.72,1.6-1.6,1.6h-16.08Z"/>
    <path class="cls-1" d="M540.61,554.63v-.16c0-.96.8-1.76,1.84-1.76l9.28-.56c4.56-1.84,10.48-2.96,16.48-2.96,18.96,0,26.96,10.32,26.96,20.48,0,5.36-2.56,9.76-6,12.96,2.24,1.84,4.08,3.6,5.28,6.48,1.36,3.12,2,6.08,2,8.72,0,13.6-16.24,20.96-32.24,20.96-4.48,0-19.44-1.2-20.64-7.2l-2.96-56.96ZM561.97,579.03c3.92-.16,13.52-.56,13.52-7.44,0-3.68-2.88-7.12-9.76-7.12-1.52,0-3.04.16-4.48.48l.72,14.08ZM563.25,603.83c1.12.16,2.16.24,3.2.24,5.92,0,10.24-2.56,10.24-6.56s-3.44-6.32-9.84-6.32c-1.52,0-2.96.08-4.24.24l.64,12.4Z"/>
    <path class="cls-1" d="M627.73,618.39c-13.04,0-24.48-9.44-24.48-23.52,0-16.48,12.32-25.04,26.4-25.04,17.68,0,25.28,13.84,25.28,24.24,0,15.6-15.84,24.32-27.2,24.32ZM637.89,593.91c0-1.52-.32-9.28-8.48-9.28-6.72,0-8.64,5.68-8.64,9.28,0,5.52,4.32,9.2,8.88,9.2,5.68,0,8.24-4.64,8.24-9.2Z"/>
    <path class="cls-1" d="M697.17,617.99c-.96.56-1.68.8-2.32.8-.8,0-1.52-.4-2.4-1.36l-8-9.28c-3.84,2.96-8.08,5.84-11.2,8-.88.56-1.6.96-2.4.96-.48,0-1.04-.16-1.6-.64l-9.44-7.6c-.88-.72-1.28-1.44-1.28-2.08,0-.56.24-1.12.88-1.68,2.72-2.4,7.92-6.88,12.64-11.28l-10.64-12.4c-.64-.72-.88-1.36-.88-1.92,0-.8.64-1.52,1.6-2l12.08-6.24c.64-.32,1.2-.48,1.76-.48,1.04,0,2,.56,2.72,1.44l7.68,8.96,8.32-8.4c.56-.56,1.12-.96,1.84-.96.64,0,1.36.32,2.24,1.04l10.48,8.32c.72.56,1.04,1.04,1.04,1.6,0,2.72-9.44,11.84-11.04,13.36l10.32,11.92c.56.64.8,1.2.8,1.76,0,.8-.56,1.52-1.52,2l-11.68,6.16Z"/>
  </g>
</svg>