<?xml version="1.0" encoding="UTF-8"?>
<svg id="Charater" xmlns="http://www.w3.org/2000/svg" viewBox="0 0 1676.9 443.56">
  <defs>
    <style>
      .cls-1 {
        fill: #5bcefa;
      }

      .cls-1, .cls-2, .cls-3 {
        stroke-width: 0px;
      }

      .cls-2 {
        fill: none;
      }

      .cls-3 {
        fill: #f6a8b8;
      }
    </style>
  </defs>
  <path class="cls-1" d="M153.22,262.99c-1.19.46-2.13.88-3.11,1.06-4.19.74-7.04-1.04-8.05-3.91l-9.97-29.21c-.13-.74-.46-1.19-.59-1.93-.48-2.71.49-4.4,3.36-5.42l9.3-3.42-17.32-89.6-10.88,10.29c-.65.62-1.59,1.04-2.58,1.22-1.48.26-3.08-.22-4-1.07l-7.36-8.6,22.97,121.61c.74,4.19-.77,5.72-3.43,6.44l-42.07,10.46-.74.13c-3.45.61-5.76-1.01-6.28-3.97l-16.99-89.15-24.94,1.1c-2.79-.01-4.66-1.97-5.05-4.19l-.13-.74,1.27-44.65c.15-2.06,1.94-3.39,4.16-3.78l.98-.17,13.82.61-11.51-60.93c-.48-2.71.99-4.49,3.94-5.01l44.69-7.12c2.95-.52,4.74.94,5.21,3.65l11.2,59.2,8.72-8.14c.41-.58,1.35-1,2.08-1.13,1.48-.26,3.08.22,4,1.07l10.28,9.36-11.92-61.87c-1-5.66,1.61-12.47,10.14-14.48l82.93-19.19,1.97-.35c16.99-3,29.46,7.25,33.84,32.11l.43,2.46,11.6,80.2c.84,6.2-2.01,13.05-11.82,15.03l-58.58,11.85,7.77,39.75,8.56-3.29c.7-.38,1.43-.51,1.93-.59,2.46-.43,3.95.83,4.48,3.78l5.09,30.33c.65,3.69-.68,6.21-4.24,7.6l-53.14,22.57ZM196.79,75.32l-.13-.74c-1-5.66-4.03-8.43-7.47-7.82l-.49.09-23.91,5.49,4.23,21.09,18.03-1.4c2.51-.19,4.04,1.32,4.34,3.04l.09.49-.5,13.03c-.26,2.84-1.77,4.37-3.98,4.76l-.74.13-13.31.82,3.62,17.64,27.98-5.44-7.75-51.18ZM246.16,241.52c-1.59,1.04-3.72,1.93-5.69,2.27-4.19.74-8.67-.25-10.64-4.22l-28.77-52.3c-.42-.94-.8-1.64-.93-2.38-.43-2.46.74-4.45,3.03-5.86l26.91-14.39c.94-.42,2.13-.88,2.87-1.01,2.46-.43,4.36.25,5.78,2.54l6.21,9.31,4.78-3.13c.7-.38,1.39-.75,1.88-.84,1.97-.35,3.87.33,5.11,1.64l13.68,17.13c.96,1.1,1.42,2.29,1.64,3.52.39,2.22-.2,4.61-2.49,6.02l-5.84,4.33,8.05,12.54c.71,1.14,1.13,2.08,1.3,3.07.48,2.71-.61,5.18-3.14,6.65l-23.74,15.1Z"/>
  <path class="cls-3" d="M343.37,239.5h-.5c-6.5,0-11-4.25-11.25-10.75l-2-81v-.5c0-6.25,4.75-10.25,10.5-10.5l44-1.75,1.75-34.5-65.5-1c-4.25,0-6.25-1.25-6.25-5.25l.5-37.5c0-4.75,1.75-6,5.25-6l68.25,1.25,2-42.75c.25-2.5,1.75-3.75,4-3.75h.75l51.25,3.25c3.25.25,4.75,1.75,4.75,4.75v.75l-2,38.75,83.25,1.5c3.5,0,5.75,1.75,5.75,5.25l-.25,37.25c0,3.5-1.5,6-5.25,6l-86-1.5-1.5,31,39-1.5h2.25c24.25,0,35.5,16.25,35.5,35.75v.75l-.5,54.75c0,9.5-7.25,12.75-14,13l-163.75,4.25ZM458.87,179.25c0-7.25-3.75-10.25-10-10.25h-.75l-65.5,2.25.75,32,75.5-2.5v-21.5Z"/>
  <path class="cls-1" d="M588.56,223.24c-2-1.62-3.17-3.61-2.74-6.07.26-1.48,1.3-3.07,3.13-4.78,41.36-35.86,56.95-55.2,61.57-65.55l50.41-111.69c.93-2.38,3.45-3.71,6.89-3.1.49.09,1.48.26,2.17.64l45.85,19.25c3.07,1.3,4.65,3.87,4,7.56-.13.74-.26,1.48-.68,2.42l-49.69,109.03c-7.38,15.96-25.45,40.7-66.96,78.82-3.36,3.22-9.12,4.23-14.05,3.36-2.22-.39-4.35-1.27-6.14-2.61l-33.78-27.28ZM756.12,273.6c-3.01,1.25-6.1,1.46-9.05.94-3.94-.69-7.37-2.82-8.37-5.79l-27.29-74.12c-.72-1.65-.71-3.17-.49-4.4.35-1.97,1.64-3.52,4.07-4.36l38.97-13.69c1.36-.52,2.39-.59,3.62-.38,1.97.35,3.52,1.64,4.45,3.58l34.17,72.54c.93,1.94,1.16,3.5.9,4.98-.39,2.22-1.97,3.97-4.16,4.85l-36.81,15.85Z"/>
  <path class="cls-3" d="M875.27,238.56c-3.49-.3-5.1-1.95-4.84-4.94l2.63-38.67c.35-3.98,2-5.6,5.23-5.31l68.28,5.47,11.67-96.1-61.36-7.12c-3.49-.31-4.83-2.18-4.57-5.17l5.2-42.21c.6-3.96,2.2-5.08,5.69-4.77l195.02,22.58c2.99.26,4.31,2.39,4.07,5.12l-.07.75-5.45,42.19c-.53,3.22-2.41,4.56-5.64,4.27l-71.55-8.27-11.72,93.83,84.97,6.93c3.24.28,4.83,2.18,4.52,5.67l-2.63,38.67c-.3,3.49-1.93,4.85-5.42,4.54l-214.04-17.47Z"/>
  <path class="cls-1" d="M1311.49,249.74c-1.76-.1-3.25-2.73-3.49-5.47-.09-1,.05-2.26.46-3.3l7.8-16.99-90.12,5.38,12.27,19.76c.58.95.94,2.18,1.03,3.17.2,2.24-.65,4.07-2.37,4.47l-56.98,17.03c-1.22.36-2.7.74-3.94.85-3.24.28-6.31-.45-7.48-2.36l-18.62-29.24c-1.15-1.66-1.8-3.36-1.93-4.85-.22-2.49.63-4.32,2.1-4.7l13.21-3.92-.15-1.74-1.2-25.24c-.14-4.5,2.22-6.22,5.21-6.48l195.67-12.35c3.24-.28,5.13,1.31,5.4,4.3l1.53,23.2,15.95,1.62c2.01.07,3.75,2.68,3.99,5.42.11,1.25-.05,2.26-.46,3.3l-13.94,32.84c-.59,1.81-2.79,2.5-5.28,2.72-1,.09-2.24.2-3.26.03l-55.36-7.45ZM1186.95,185.85l-.5.04c-6.47.57-11.8-2.98-12.6-9.19l-16.11-115.28-.11-1.25c-.63-7.22,3.33-13.59,12.5-14.9l142.62-19.25,3.24-.28c24.9-2.18,36.31,10.63,38.81,36.26l8.77,88.82c.83,9.46-6.54,14.12-14.49,15.07l-162.13,19.96ZM1296.1,82.45c-.87-9.96-5.93-13.28-11.66-12.78l-.5.04-69.35,7.57,1.65,13.16,53.97-2.71c3.26-.03,5.13,1.31,5.37,4.05.04.5-.16,1.02-.1,1.77l-.68,6.58c0,2.76-1.85,4.68-5.83,5.03l-50.42,3.16,1.89,15.9,63.6-13.09.5-.04c2.24-.2,4.16,1.64,4.42,4.63l.04.5.11,7.02c.03,3.26-2.28,5.47-6.72,6.36l-59.64,12.5,1.44,10.67,77.49-12.05-5.6-58.23Z"/>
  <path class="cls-3" d="M1613.8,105.81c-.91,1.08-2.61,1.73-3.85,1.84-1.49.13-2.78-.26-3.6-.94l-15.44-12.95c-.81-.68-1.4-1.63-1.51-2.88-.11-1.25.28-2.53,1.44-3.64l9.99-9.16-31.66,5.28-5.43,18.29c-1.17,3.87-4.73,6.19-9.21,6.58-1.74.15-3.26.03-5.05-.31l-31.21-6.81c-1.79-.35-2.67-1.77-2.8-3.27-.07-.75.12-1.52.3-2.29l3.71-12.12-25.48,4.24,12.1,9.23c1.06.66,1.42,1.88,1.51,2.88.11,1.25-.05,2.26-.76,2.83l-13.67,12.99c-.7.56-2.15,1.19-3.4,1.3s-2.53-.28-3.33-.71l-12.5-10.95c-.54-.45-1.13-1.41-1.24-2.65-.09-1,.3-2.29,1.23-3.12l12.14-10.35-24.5,3.9-4.91,18.5c-.92,3.84-5.21,6.48-10.19,6.91-1.49.13-3.26.03-4.8-.33l-30.44-6.62c-1.79-.35-2.66-1.77-2.79-3.27-.09-1,.1-1.76.28-2.53l21.17-67.85c.82-2.08,2.25-2.96,3.99-3.11.5-.04,1.25-.11,1.77.1l36.11,5.37c1.76.1,2.64,1.53,2.79,3.27.04.5.11,1.25-.1,1.77l-1.72,6.17,40.79-7.08.5-.04c2.49-.22,4.12,1.15,4.33,3.64l4.44,24.96,13.69-44.36c.82-2.08,2.25-2.96,3.99-3.11.5-.04,1.25-.11,1.76.1l37.85,5.22c1.76.1,2.89,1.5,3.04,3.25.04.5-.14,1.27-.35,1.79l-1.76,5.67,55.39-9.36.75-.07c2.49-.22,3.87,1.17,4.33,3.64l4.97,30.93.06.75c.2,2.24-.44,3.55-3.16,4.04l-27.97,4.45,12.33,8.96c1.06.66,1.67,1.86,1.8,3.36.09,1-.32,2.04-1.01,2.85l-14.76,14.84ZM1472.6,267.49l-1,.09c-3.99.35-6.47-2.19-6.75-5.43l-3.94-33.53-4.23,20.45c-.49,3.05-2.85,4.77-5.58,5.01-1,.09-1.77-.1-2.78-.26l-19.66-3.8c-2.04-.32-2.91-1.75-3.04-3.25-.09-1,.1-1.77.28-2.53l9.75-31.97c.59-1.81,1.77-2.67,3.27-2.8.5-.04,1.25-.11,1.76.1l18.43,4.16-2.69-22.1-21.33,2.87-.75.06c-3.74.33-6.13-1.22-6.64-4.19l-3.77-28.78-.04-.5c-.33-3.74,1.81-5.18,4.77-5.69l18.84-2.65-2.79-23.35c-.28-3.24,1.76-5.67,5.5-6l42.79-4.25c3.49-.31,6.94,1.9,7.23,5.14l2.6,21.1,12.16-1.57.5-.04c2.99-.26,5.9,1.49,6.16,4.48l3.52,28.8c.28,3.24-1.26,5.63-5.23,6.23l-16.37,2.19,2.93,24.84,11.46-9.54c.7-.56,1.45-.63,2.2-.69,1.25-.11,2.51.03,3.33.71l11.59,12.04c.81.68,1.15,1.66,1.24,2.65.11,1.25-.28,2.53-1.46,3.39l-13.03,11.68c-.7.56-1.43.88-2.42.97-1.5.13-3.28-.21-3.87-1.17l-7.78-8.6,3.66,30.3c.35,3.98-1.38,7.15-5.08,7.97l-33.73,7.47ZM1635.87,251.95l-86.97,4.1c-5.75.25-8.73-2.25-9.14-6.98l-.06-.75-7.35-121.32c-.21-5.25,3.97-9.13,9.45-9.61l.5-.04,74.64-4.52c16.48-.94,30.19,6.64,32.26,30.3l.28,3.24,3.28,86.29c.46,11-4.18,18.18-15.64,19.19l-1.25.11ZM1599.82,161.24l-.04-.5c-.39-4.48-4.07-9.18-8.8-8.77l-19.45,1.45.85,15.48,15.16,1.18c2.51.03,3.89,1.42,4.04,3.16.07.75-.14,1.27-.32,2.04l-2.68,9.52c-.55,2.31-2.23,3.21-3.97,3.36-.5.04-1.27-.14-1.76-.1l-9.64-1.16.61,12.75,14.88-2.05.5-.04c2.24-.2,3.87,1.17,4.04,3.16l.09,1-1,8.62c-.46,3.3-2.37,4.47-4.36,4.65l-13.16,1.65.5,11.5,27.96-1.69-3.45-65.2Z"/>
  <line class="cls-2" x1="144.37" y1="121.25" x2="145.37" y2="123.25"/>
  <g>
    <path class="cls-1" d="M101.92,409.36c-1.3,0-2.4-1.1-2.4-2.4v-78.1c0-1.3,1.1-2.4,2.4-2.4h20.3c1.3,0,2.4,1.1,2.4,2.4v78.1c0,1.3-1.1,2.4-2.4,2.4h-20.3ZM152.53,408.76c-1.3-.1-2.3-1.2-2.3-2.5l1.6-28.8-21.3-1c-1.3-.1-2.3-1.2-2.3-2.4v-.2l.8-17.5c.1-1.2,1.2-2.3,2.4-2.3h.2l21.3,1.1,1.4-26.9c.1-1.2,1.1-2.3,2.4-2.3h.2l20.1,1.1c1.3,0,2.3,1.2,2.3,2.5l-4.1,78c-.1,1.3-1.2,2.3-2.5,2.3l-20.2-1.1Z"/>
    <path class="cls-1" d="M223.33,411.36c-22.7,0-34.1-15.5-34.1-30.7,0-14.3,10.1-29.3,32.9-29.3,24.8,0,25.9,22.1,25.9,25.4,0,4.6-1.9,8.4-7.8,10.4-4.7,1.6-12.1,2.7-17.3,2.9-1.6,0-2.1-.7-2.5-1.9-1.2-3.3-3.1-9.8-3.1-10.2,0-1.1.8-1.6,2.1-1.9,5.2-1.2,5.9-1.4,5.9-2.8,0-.9-1.9-4.1-6.1-4.1-4.8,0-8.8,4.2-8.8,10.4,0,7.1,5.2,15.1,17.7,15.1.7,0,1.5,0,2.2-.1h.2c1.4,0,3.1.9,3.1,2.6,0,1-2.6,7.8-4.1,11.2-.8,1.6-2.1,3-5,3h-1.2Z"/>
    <path class="cls-1" d="M321.03,385.66c0,5.6,1.3,10.1,5.4,13.9.6.5,1.6,1.5,1.6,2.6,0,.6-.3,1.2-1,1.7,0,.2-9.9,7.3-9.9,7.3-1,.8-2,1.1-2.9,1.1-1.8,0-17.8-5.3-17.8-23.1v-3.4c0-10.5-5.1-14.9-12.4-15.3l-1.9,36.3c0,1-.9,1.9-1.9,1.9h-.2l-20-1c-1.2-.1-2-1-2-2.2l2.7-52c.1-1.1,1-2,2-2h.2l11.2.6c3.9-.8,7.6-1.2,11.2-1.2,20.3,0,35.7,12.4,35.7,31.5v3.3Z"/>
    <path class="cls-3" d="M391.33,376.86c-1.2,0-8,.5-10.4.6h-.2c-1.9,0-2.8-1.6-2.8-3.1l-.2-11.9v-.2c0-1.5,1.3-2.9,3.1-3,10.9-.6,25-1.2,26.2-1.2,7.9,0,10.7,5,10.7,15,0,24-20.6,38.2-41.4,38.2-22.3,0-43.8-16.3-43.8-43.6,0-35.7,33.9-43.4,47.7-43.4,6.1,0,11.9,1.1,16.6,3.3.9.4,1.6,1.5,1.6,2.7v.4l-3.4,16.8c-.2.9-1.2,1.8-2.4,1.8-.3,0-.7-.1-1-.3-2.4-1.2-6.3-2.1-10.5-2.1-16.1,0-21.4,11.1-21.4,21,0,12.8,9.1,20.2,18.5,20.2,9.9,0,14.8-7,14.8-9.8,0-.9-.4-1.4-1.4-1.4h-.3Z"/>
    <path class="cls-3" d="M466.92,408.16c-4.8,1.5-9.5,2.3-13.9,2.3-13.9,0-24.7-7.8-25.6-26.4-.3-6.5-.5-18.9-.6-25.3,0-4.1,1.4-4.9,2.6-5,.1-.2,15.6-1.3,17.3-1.3,2,0,2.8,1,2.9,2.2.6,6.7.8,12.1,1.4,24,.4,8.6,3.4,11.6,7.6,11.6,2,0,4.4-.7,6.9-1.9l1.8-34.4c.1-1.2,1.1-2,2.2-2l19.9,1.1c1.2,0,2,1,2,2.2l-2.7,52c-.1,1.2-1.1,2-2.2,2l-19.6-1.1Z"/>
    <path class="cls-1" d="M562.72,410.06c-.8.4-1.6.6-2.4.6-1,0-1.9-.4-2.6-1.5-4.2-6.1-10.5-16-15.3-23.9-4.2,0-8.3-.5-12.1-1.6l-1.2,23.6c-.1,1.1-.9,2-2,2h-.2l-21-1.1c-1,0-1.9-.9-1.9-2v-.2l4-79.11c.1-1,1-1.9,2-1.9h.2l18.5.9c3.9-1.2,7.9-1.8,11.8-1.8,18.4,0,35.1,12.9,35.1,31.2,0,4.9-1.2,13.8-7.5,20.4,5.7,10.5,10.1,24.5,10.1,25.4,0,1-.5,2-2.2,2.7l-13.3,6.3ZM531.32,364.96c2.1.9,4.9,1.6,7.6,1.6,8.1,0,11-5.9,11-10.5,0-6.5-5.6-11.1-13-11.1-1.4,0-3,.2-4.6.6l-1,19.4Z"/>
    <path class="cls-1" d="M618.12,411.36c-22.7,0-34.1-15.5-34.1-30.7,0-14.3,10.1-29.3,32.9-29.3,24.8,0,25.9,22.1,25.9,25.4,0,4.6-1.9,8.4-7.8,10.4-4.7,1.6-12.1,2.7-17.3,2.9-1.6,0-2.1-.7-2.5-1.9-1.2-3.3-3.1-9.8-3.1-10.2,0-1.1.8-1.6,2.1-1.9,5.2-1.2,5.9-1.4,5.9-2.8,0-.9-1.9-4.1-6.1-4.1-4.8,0-8.8,4.2-8.8,10.4,0,7.1,5.2,15.1,17.7,15.1.7,0,1.5,0,2.2-.1h.2c1.4,0,3.1.9,3.1,2.6,0,1-2.6,7.8-4.1,11.2-.8,1.6-2.1,3-5,3h-1.2Z"/>
    <path class="cls-1" d="M715.82,385.66c0,5.6,1.3,10.1,5.4,13.9.6.5,1.6,1.5,1.6,2.6,0,.6-.3,1.2-1,1.7,0,.2-9.9,7.3-9.9,7.3-1,.8-2,1.1-2.9,1.1-1.8,0-17.8-5.3-17.8-23.1v-3.4c0-10.5-5.1-14.9-12.4-15.3l-1.9,36.3c0,1-.9,1.9-1.9,1.9h-.2l-20-1c-1.2-.1-2-1-2-2.2l2.7-52c.1-1.1,1-2,2-2h.2l11.2.6c3.9-.8,7.6-1.2,11.2-1.2,20.3,0,35.7,12.4,35.7,31.5v3.3Z"/>
    <path class="cls-3" d="M1126.33,410.36h-.2c-1.3,0-2.3-1.1-2.3-2.3l-3-57.1-16.4.9c-1.4,0-2.6-1-2.6-2.3l-.9-18.5v-.2c0-1.2,1-2.2,2.3-2.3l18.7-1,39.6-2.1c1.3,0,2.6,1,2.6,2.4l.9,18.3c0,1.3-1,2.5-2.4,2.6l-15.8.8,3,57.2v.1c0,1.3-1.1,2.3-2.3,2.4l-21.2,1.1Z"/>
    <path class="cls-3" d="M1192.23,411.16c-16.3,0-30.6-11.8-30.6-29.4,0-20.6,15.4-31.3,33-31.3,22.1,0,31.6,17.3,31.6,30.3,0,19.5-19.8,30.4-34,30.4ZM1204.93,380.56c0-1.9-.4-11.6-10.6-11.6-8.4,0-10.8,7.1-10.8,11.6,0,6.9,5.4,11.5,11.1,11.5,7.1,0,10.3-5.8,10.3-11.5Z"/>
    <path class="cls-3" d="M1262.53,411.16c-16.3,0-30.6-11.8-30.6-29.4,0-20.6,15.4-31.3,33-31.3,22.1,0,31.6,17.3,31.6,30.3,0,19.5-19.8,30.4-34,30.4ZM1275.23,380.56c0-1.9-.4-11.6-10.6-11.6-8.4,0-10.8,7.1-10.8,11.6,0,6.9,5.4,11.5,11.1,11.5,7.1,0,10.3-5.8,10.3-11.5Z"/>
    <path class="cls-3" d="M1308.72,409.36c-1.1,0-2-.9-2-2v-81.7c0-1.2.9-2.1,2-2.1h20.1c1.1,0,2,.9,2,2.1v81.7c0,1.1-.9,2-2,2h-20.1Z"/>
    <path class="cls-1" d="M1344.72,331.46v-.2c0-1.2,1-2.2,2.3-2.2l11.6-.7c5.7-2.3,13.1-3.7,20.6-3.7,23.7,0,33.7,12.9,33.7,25.6,0,6.7-3.2,12.2-7.5,16.2,2.8,2.3,5.1,4.5,6.6,8.1,1.7,3.9,2.5,7.6,2.5,10.9,0,17-20.3,26.2-40.3,26.2-5.6,0-24.3-1.5-25.8-9l-3.7-71.2ZM1371.42,361.96c4.9-.2,16.9-.7,16.9-9.3,0-4.6-3.6-8.9-12.2-8.9-1.9,0-3.8.2-5.6.6l.9,17.6ZM1373.02,392.96c1.4.2,2.7.3,4,.3,7.4,0,12.8-3.2,12.8-8.2s-4.3-7.9-12.3-7.9c-1.9,0-3.7.1-5.3.3l.8,15.5Z"/>
    <path class="cls-1" d="M1453.62,411.16c-16.3,0-30.6-11.8-30.6-29.4,0-20.6,15.4-31.3,33-31.3,22.1,0,31.6,17.3,31.6,30.3,0,19.5-19.8,30.4-34,30.4ZM1466.33,380.56c0-1.9-.4-11.6-10.6-11.6-8.4,0-10.8,7.1-10.8,11.6,0,6.9,5.4,11.5,11.1,11.5,7.1,0,10.3-5.8,10.3-11.5Z"/>
    <path class="cls-1" d="M1540.42,410.66c-1.2.7-2.1,1-2.9,1-1,0-1.9-.5-3-1.7l-10-11.6c-4.8,3.7-10.1,7.3-14,10-1.1.7-2,1.2-3,1.2-.6,0-1.3-.2-2-.8l-11.8-9.5c-1.1-.9-1.6-1.8-1.6-2.6,0-.7.3-1.4,1.1-2.1,3.4-3,9.9-8.6,15.8-14.1l-13.3-15.5c-.8-.9-1.1-1.7-1.1-2.4,0-1,.8-1.9,2-2.5l15.1-7.8c.8-.4,1.5-.6,2.2-.6,1.3,0,2.5.7,3.4,1.8l9.6,11.2,10.4-10.5c.7-.7,1.4-1.2,2.3-1.2.8,0,1.7.4,2.8,1.3l13.1,10.4c.9.7,1.3,1.3,1.3,2,0,3.4-11.8,14.8-13.8,16.7l12.9,14.9c.7.8,1,1.5,1,2.2,0,1-.7,1.9-1.9,2.5l-14.6,7.7Z"/>
  </g>
</svg>